# xmcd
#
# Track frame offsets: 
#        150
#        15489
#        32582
#        50415
#        67908
#        84908
#        100081
#        117776
#        131880
#        149697
#
# Disc length: 2226 seconds
#
# Revision: 0
# Processed by: cddbd v1.5.2PL0 Copyright (c) Steve Scherf et al.
# Submitted via: ExactAudioCopy v0.99pb4
#
DISCID=7e08b00a
DTITLE=เทิด ทูลทอง - อมตะเพลงดัง ปัดฝุ่น รุ่นพิเศษ 12
DYEAR=2009
DGENRE=Country
TTITLE0=ในฝัน
TTITLE1=น้ำตาเทียน
TTITLE2=นางรอง
TTITLE3=อันเป็นดวงใจ
TTITLE4=คืนนี้พี่ครวญ
TTITLE5=คืนอำลา
TTITLE6=แล้วจะรู้ว่าพี่รัก
TTITLE7=นิราศเวียงพิงค์
TTITLE8=แสบทรวง
TTITLE9=รักจนขาดใจ
EXTD=
EXTT0=
EXTT1=
EXTT2=
EXTT3=
EXTT4=
EXTT5=
EXTT6=
EXTT7=
EXTT8=
EXTT9=
PLAYORDER=
